<mxfile host="65bd71144e">
    <diagram id="P7BDx4oSbbpQ1yiY1i5o" name="Page-1">
        <mxGraphModel dx="1136" dy="525" grid="1" gridSize="10" guides="1" tooltips="1" connect="1" arrows="1" fold="1" page="1" pageScale="1" pageWidth="850" pageHeight="1100" math="0" shadow="0">
            <root>
                <mxCell id="0"/>
                <mxCell id="1" parent="0"/>
                <mxCell id="2" value="APP.MODULE.TS" style="whiteSpace=wrap;html=1;" vertex="1" parent="1">
                    <mxGeometry x="46.5" y="20" width="450" height="225" as="geometry"/>
                </mxCell>
                <mxCell id="3" value="APP.COMPONENT" style="rhombus;whiteSpace=wrap;html=1;" vertex="1" parent="1">
                    <mxGeometry x="47" y="115" width="143" height="130" as="geometry"/>
                </mxCell>
                <mxCell id="5" value="DASHBOARD.MODULE.TS&lt;br&gt;" style="whiteSpace=wrap;html=1;" vertex="1" parent="1">
                    <mxGeometry x="300" y="270" width="450" height="225" as="geometry"/>
                </mxCell>
                <mxCell id="6" value="DASHBOARD COMPONENT" style="rhombus;whiteSpace=wrap;html=1;" vertex="1" parent="1">
                    <mxGeometry x="300" y="410" width="140" height="80" as="geometry"/>
                </mxCell>
                <mxCell id="7" style="edgeStyle=none;html=1;exitX=1;exitY=1;exitDx=0;exitDy=0;entryX=0;entryY=0;entryDx=0;entryDy=0;" edge="1" parent="1" source="3" target="6">
                    <mxGeometry relative="1" as="geometry"/>
                </mxCell>
                <mxCell id="8" value="DESDE DASHBOARD.MODULE EXPORTAR&lt;br&gt;EL DASHBOARD.COMPONENT" style="text;html=1;align=center;verticalAlign=middle;resizable=0;points=[];autosize=1;strokeColor=none;fillColor=none;" vertex="1" parent="1">
                    <mxGeometry x="235" y="210" width="270" height="40" as="geometry"/>
                </mxCell>
            </root>
        </mxGraphModel>
    </diagram>
</mxfile>